# xmcd CD database file
#
# Track frame offsets:
#	150
#	17041
#	28506
#	42334
#	61161
#	75441
#	88751
#	105101
#	124887
#	146287
#	162131
#	180302
#	195402
#	215033
#	232004
#	248546
#	268360
#	292220
#	307123
#	322654
#
# Disc length: 4523 seconds
#
# Revision: 5
# Processed by: cddbd v1.5.2PL0 Copyright (c) Steve Scherf et al.
# Submitted via: CDex 1.51
#
DISCID=0c11a914
DTITLE=The Real Book Play Along - Volume I A-D CD1
DYEAR=2008
DGENRE=Jazz
TTITLE0=Aqua de Beber
TTITLE1=Airegin
TTITLE2=Alice In Wonderland
TTITLE3=All Blues
TTITLE4=All of Me
TTITLE5=All of You
TTITLE6=All The Things You Are
TTITLE7=Alright, Okay, You Win
TTITLE8=Angel Eyes
TTITLE9=Athropology
TTITLE10=April in Paris
TTITLE11=Au Privave
TTITLE12=Autumn in New York
TTITLE13=Autumn Leaves
TTITLE14=Bessie's Blues
TTITLE15=Bewitched
TTITLE16=Black Coffee
TTITLE17=Black Orpheus
TTITLE18=Blue in Green
TTITLE19=The Blue Room
EXTD=YEAR: 2008
EXTT0=
EXTT1=
EXTT2=
EXTT3=
EXTT4=
EXTT5=
EXTT6=
EXTT7=
EXTT8=
EXTT9=
EXTT10=
EXTT11=
EXTT12=
EXTT13=
EXTT14=
EXTT15=
EXTT16=
EXTT17=
EXTT18=
EXTT19=
PLAYORDER=
